HIERARCHY
ROOT Hips
{
	OFFSET 0.00000 0.00000 0.00000
	CHANNELS 6 Xposition Yposition Zposition Zrotation Yrotation Xrotation 
	JOINT LHipJoint
	{
		OFFSET 0 0 0
		CHANNELS 3 Zrotation Yrotation Xrotation
		JOINT LeftUpLeg
		{
			OFFSET 1.85590 -1.73949 0.84976
			CHANNELS 3 Zrotation Yrotation Xrotation
			JOINT LeftLeg
			{
				OFFSET 2.36836 -6.50702 0.00000
				CHANNELS 3 Zrotation Yrotation Xrotation
				JOINT LeftFoot
				{
					OFFSET 2.53268 -6.95849 0.00000
					CHANNELS 3 Zrotation Yrotation Xrotation
					JOINT LeftToeBase
					{
						OFFSET 0.15935 -0.43781 1.94506
						CHANNELS 3 Zrotation Yrotation Xrotation
						End Site
						{
							OFFSET 0.00000 -0.00000 1.00661
						}
					}
				}
			}
		}
	}
	JOINT RHipJoint
	{
		OFFSET 0 0 0
		CHANNELS 3 Zrotation Yrotation Xrotation
		JOINT RightUpLeg
		{
			OFFSET -1.68297 -1.73949 0.84976
			CHANNELS 3 Zrotation Yrotation Xrotation
			JOINT RightLeg
			{
				OFFSET -2.44709 -6.72334 0.00000
				CHANNELS 3 Zrotation Yrotation Xrotation
				JOINT RightFoot
				{
					OFFSET -2.43843 -6.69953 0.00000
					CHANNELS 3 Zrotation Yrotation Xrotation
					JOINT RightToeBase
					{
						OFFSET -0.20854 -0.57295 2.02172
						CHANNELS 3 Zrotation Yrotation Xrotation
						End Site
						{
							OFFSET -0.00000 -0.00000 1.05594
						}
					}
				}
			}
		}
	}
	JOINT LowerBack
	{
		OFFSET 0 0 0
		CHANNELS 3 Zrotation Yrotation Xrotation
		JOINT Spine
		{
			OFFSET -0.01560 2.23971 -0.03712
			CHANNELS 3 Zrotation Yrotation Xrotation
			JOINT Spine1
			{
				OFFSET 0.05490 2.19225 -0.19086
				CHANNELS 3 Zrotation Yrotation Xrotation
				JOINT Neck
				{
					OFFSET 0 0 0
					CHANNELS 3 Zrotation Yrotation Xrotation
					JOINT Neck1
					{
						OFFSET -0.12403 1.43168 0.27585
						CHANNELS 3 Zrotation Yrotation Xrotation
						JOINT Head
						{
							OFFSET 0.17855 1.46173 -0.32578
							CHANNELS 3 Zrotation Yrotation Xrotation
							End Site
							{
								OFFSET 0.07217 1.51590 -0.14537
							}
						}
					}
				}
				JOINT LeftShoulder
				{
					OFFSET 0 0 0
					CHANNELS 3 Zrotation Yrotation Xrotation
					JOINT LeftArm
					{
						OFFSET 3.27650 0.85634 0.05396
						CHANNELS 3 Zrotation Yrotation Xrotation
						JOINT LeftForeArm
						{
							OFFSET 4.96755 -0.00000 0.00000
							CHANNELS 3 Zrotation Yrotation Xrotation
							JOINT LeftHand
							{
								OFFSET 3.35751 -0.00000 0.00000
								CHANNELS 3 Zrotation Yrotation Xrotation
								JOINT LeftFingerBase
								{
									OFFSET 0 0 0
									CHANNELS 3 Zrotation Yrotation Xrotation
									JOINT LeftHandIndex1
									{
										OFFSET 0.79697 -0.00000 0.00000
										CHANNELS 3 Zrotation Yrotation Xrotation
										End Site
										{
											OFFSET 0.64254 -0.00000 0.00000
										}
									}
								}
								JOINT LThumb
								{
									OFFSET 0 0 0
									CHANNELS 3 Zrotation Yrotation Xrotation
									End Site
									{
										OFFSET 0.65235 -0.00000 0.65235
									}
								}
							}
						}
					}
				}
				JOINT RightShoulder
				{
					OFFSET 0 0 0
					CHANNELS 3 Zrotation Yrotation Xrotation
					JOINT RightArm
					{
						OFFSET -3.24434 1.02034 0.34688
						CHANNELS 3 Zrotation Yrotation Xrotation
						JOINT RightForeArm
						{
							OFFSET -5.21859 -0.00000 -0.00000
							CHANNELS 3 Zrotation Yrotation Xrotation
							JOINT RightHand
							{
								OFFSET -3.36504 -0.00000 0.00000
								CHANNELS 3 Zrotation Yrotation Xrotation
								JOINT RightFingerBase
								{
									OFFSET 0 0 0
									CHANNELS 3 Zrotation Yrotation Xrotation
									JOINT RightHandIndex1
									{
										OFFSET -0.62044 -0.00000 0.00000
										CHANNELS 3 Zrotation Yrotation Xrotation
										End Site
										{
											OFFSET -0.50022 -0.00000 0.00000
										}
									}
								}
								JOINT RThumb
								{
									OFFSET 0 0 0
									CHANNELS 3 Zrotation Yrotation Xrotation
									End Site
									{
										OFFSET -0.50786 -0.00000 0.50786
									}
								}
							}
						}
					}
				}
			}
		}
	}
}
MOTION
Frames: 4
Frame Time: .0083333
8.586900 15.913500 -2.867700 -7.985900 -6.827700 12.140600 0.000000 0.000000 0.000000 -4.860000 -10.351200 -53.034600 2.973300 10.651700 31.113900 0.191300 1.354300 -8.871700 1.467300 -7.655100 -21.671200 0.000000 0.000000 0.000000 27.791600 -3.023100 23.831000 0.000000 -0.000000 0.000000 -0.000800 0.863800 -0.749900 -2.329700 9.521500 -27.440600 2.924900 4.950800 -6.356000 4.201200 6.200700 0.730600 3.334600 3.097800 4.154400 -15.072500 -6.560400 -19.268700 14.210500 -7.416600 13.313500 6.348100 -2.970100 8.435400 0.000000 -0.000000 0.000000 -82.452200 36.582000 -9.956900 5.806300 -9.938700 -0.505300 -0.000000 -0.000000 33.537600 16.593500 -30.557600 -8.614800 -7.125000 0.000000 -0.000000 -8.387400 -1.356500 8.676300 0.000000 -0.000000 0.000000 69.317200 31.706400 60.649800 -29.059900 40.073800 -10.799300 0.000000 -0.000000 -22.423100 -35.584300 -15.377100 10.743200 7.125000 -0.000000 -0.000000 -7.799300 -48.507100 0.678500
8.625100 15.882800 -2.578900 -7.752400 -6.667300 12.203400 0.000000 0.000000 0.000000 -5.099900 -10.543300 -53.923100 3.414300 11.337300 33.426100 0.054500 1.822600 -5.475300 1.262500 -7.122400 -20.078400 0.000000 0.000000 0.000000 27.213100 -3.416900 24.511200 0.000000 0.000000 -0.000000 -0.003100 -0.345600 0.993900 -2.192800 9.256500 -26.601200 2.871600 5.022100 -6.504100 4.020200 6.299800 0.708100 3.200100 3.147000 4.225500 -14.904500 -6.795400 -19.735800 13.993700 -7.697800 13.492500 6.199000 -3.095700 8.604000 0.000000 0.000000 0.000000 -82.035400 36.434900 -13.553600 5.536700 -9.487200 -0.459800 -0.000000 -0.000000 36.707400 15.658300 -30.192400 -8.023900 -7.125000 0.000000 -0.000000 -8.888400 -0.833500 9.126700 0.000000 0.000000 0.000000 69.124900 31.916400 60.409500 -29.045400 40.061000 -10.789900 0.000000 -0.000000 -22.627100 -35.538700 -14.993800 10.470300 7.125000 -0.000000 -0.000000 -7.756600 -48.045000 0.586000
8.623400 15.827000 -2.288900 -7.516300 -5.900600 12.494000 0.000000 0.000000 0.000000 -5.287000 -11.054200 -55.038500 3.900900 12.027400 35.828800 0.015200 1.744800 -3.612400 1.141000 -6.783300 -19.075000 0.000000 0.000000 0.000000 26.811100 -4.297900 24.890700 0.000000 -0.000000 0.000000 -0.023500 -2.006300 2.866100 -2.135300 9.142400 -26.241700 2.348900 4.804800 -6.913600 3.943200 6.052500 0.328900 3.396300 3.015900 4.020500 -14.589200 -6.886000 -19.811500 13.772200 -7.899900 13.902700 6.043300 -3.190800 8.762800 -0.000000 -0.000000 0.000000 -81.593600 36.803700 -16.622700 5.345400 -9.166100 -0.428800 -0.000000 -0.000000 39.197500 14.619800 -29.273000 -7.268700 -7.125000 0.000000 -0.000000 -9.406500 0.250200 9.494400 -0.000000 -0.000000 0.000000 69.275000 31.459400 60.514200 -29.083400 40.094700 -10.814400 0.000000 -0.000000 -22.528600 -35.467700 -14.722000 10.262400 7.125000 -0.000000 -0.000000 -7.687600 -47.710900 0.517100
8.638700 15.778200 -1.996600 -7.282600 -6.002800 12.262900 0.000000 0.000000 0.000000 -5.508100 -10.930800 -55.250400 4.385200 12.656100 38.094400 -0.004800 2.306700 -2.920000 0.664000 -5.211300 -14.512100 0.000000 0.000000 0.000000 26.257100 -4.629700 25.976800 0.000000 -0.000000 0.000000 -0.065100 -4.489500 5.152500 -1.984400 8.833400 -25.275700 2.014300 4.915900 -6.764800 3.835000 6.245800 0.198900 3.462300 3.109500 3.770600 -15.180800 -6.918300 -18.986900 14.541300 -7.983100 13.239000 6.400500 -3.223100 8.474700 -0.000000 -0.000000 0.000000 -81.253100 36.819900 -21.017900 5.194900 -8.912900 -0.405100 -0.000000 -0.000000 43.297800 14.206300 -29.133700 -7.026200 -7.125000 0.000000 -0.000000 -9.635800 0.452300 9.697900 -0.000000 -0.000000 0.000000 69.484000 30.791600 60.143100 -29.164700 40.166600 -10.866800 0.000000 -0.000000 -22.116900 -35.403000 -15.670600 10.867200 7.125000 -0.000000 -0.000000 -7.613200 -48.821800 0.721500
